{
	"asset":{
		"generator":"Khronos glTF Blender I/O v3.5.30",
		"version":"2.0"
	},
	"extensionsUsed":[
		"KHR_materials_specular",
		"KHR_materials_ior"
	],
	"scene":0,
	"scenes":[
		{
			"name":"Scene",
			"nodes":[
				0
			]
		}
	],
	"nodes":[
		{
			"mesh":0,
			"name":"11070_astronaut_v4",
			"rotation":[
				-0.11530472338199615,
				0.3004160523414612,
				0.03661263361573219,
				0.9461049437522888
			]
		}
	],
	"materials":[
		{
			"doubleSided":true,
			"extensions":{
				"KHR_materials_specular":{
					"specularColorFactor":[
						0,
						0,
						0
					]
				},
				"KHR_materials_ior":{
					"ior":1.4500000476837158
				}
			},
			"name":"_11070_astronaut_v4default",
			"pbrMetallicRoughness":{
				"baseColorFactor":[
					0.800000011920929,
					0.800000011920929,
					0.800000011920929,
					1
				],
				"metallicFactor":0
			}
		}
	],
	"meshes":[
		{
			"name":"11070_astronaut_v4",
			"primitives":[
				{
					"attributes":{
						"POSITION":0,
						"TEXCOORD_0":1,
						"NORMAL":2
					},
					"indices":3,
					"material":0
				}
			]
		}
	],
	"accessors":[
		{
			"bufferView":0,
			"componentType":5126,
			"count":51659,
			"max":[
				46.22850036621094,
				181.0164031982422,
				39.9734001159668
			],
			"min":[
				-46.22850036621094,
				-1.5029000043869019,
				-52.16960144042969
			],
			"type":"VEC3"
		},
		{
			"bufferView":1,
			"componentType":5126,
			"count":51659,
			"type":"VEC2"
		},
		{
			"bufferView":2,
			"componentType":5126,
			"count":51659,
			"type":"VEC3"
		},
		{
			"bufferView":3,
			"componentType":5123,
			"count":297216,
			"type":"SCALAR"
		}
	],
	"bufferViews":[
		{
			"buffer":0,
			"byteLength":619908,
			"byteOffset":0,
			"target":34962
		},
		{
			"buffer":0,
			"byteLength":413272,
			"byteOffset":619908,
			"target":34962
		},
		{
			"buffer":0,
			"byteLength":619908,
			"byteOffset":1033180,
			"target":34962
		},
		{
			"buffer":0,
			"byteLength":594432,
			"byteOffset":1653088,
			"target":34963
		}
	],
	"buffers":[
		{
			"byteLength":2247520,
			"uri":"data:application/octet-stream;base64,"
		}
	]
}
